#!OML:ASF E:\Style4\Style4.ASF
:FULLY-SPECIFIED
:DEGREES
1047
root -0.299875 17.5106 -1.38926 2.60808 -0.302814 2.55019
lowerback 8.65046 2.39885 -1.09702
upperback 0.885494 3.04938 -0.827733
thorax -3.93882 1.52234 -0.604577
lowerneck -2.4999 -5.30508 -6.13997
upperneck -6.3501 -6.77663 5.71555
head -1.15105 -3.33579 2.88024
rclavicle -3.55328e-014 6.36111e-015
rhumerus 24.7876 -4.37637 -16.4861
rradius 116.18
rwrist -82.5239
rhand 28.9618 7.74439
rfingers 7.12502
rthumb 52.7711 -11.8918
lclavicle -3.55328e-014 6.36111e-015
lhumerus 31.9124 -8.95772 19.5735
lradius 117.635
lwrist 74.5624
lhand 15.2266 24.7331
lfingers 7.12502
lthumb 40.0649 49.9396
rfemur -21.9265 -2.27703 17.3728
rtibia 41.2529
rfoot -20.5397 -14.623
rtoes -10.7451
lfemur -20.4248 1.49272 -21.1647
ltibia 38.2698
lfoot -21.0183 9.10643
ltoes -11.2711
1048
root -0.302965 17.5219 -1.37865 2.58926 -0.305339 2.55283
lowerback 8.61135 2.40792 -1.05285
upperback 0.779847 3.06505 -0.836821
thorax -4.02398 1.52946 -0.641887
lowerneck -2.54575 -5.3179 -6.13518
upperneck -6.32813 -6.7924 5.69061
head -1.13606 -3.34277 2.86855
rclavicle 4.02539e-015 -1.2921e-014
rhumerus 25.6472 -5.95707 -17.3207
rradius 115.425
rwrist -82.9675
rhand 29.0295 7.57907
rfingers 7.12502
rthumb 52.8324 -12.0189
lclavicle 4.02539e-015 -1.2921e-014
lhumerus 32.4445 -7.45029 20.2335
lradius 116.751
lwrist 74.9206
lhand 15.1367 24.5558
lfingers 7.12502
lthumb 39.9803 49.7878
rfemur -21.7127 -2.20348 17.3773
rtibia 40.928
rfoot -20.2464 -14.8578
rtoes -11.8377
lfemur -20.2185 1.53277 -21.1584
ltibia 38.016
lfoot -20.9074 9.11926
ltoes -11.5706
1049
root -0.304561 17.5346 -1.36586 2.59249 -0.244173 2.5226
lowerback 8.49421 2.38926 -0.965006
upperback 0.699373 3.05003 -0.83712
thorax -4.03758 1.5208 -0.686391
lowerneck -2.65449 -5.31391 -6.01458
upperneck -6.2975 -6.78843 5.54385
head -1.11668 -3.33999 2.79304
rclavicle -3.8266e-015 -3.37934e-015
rhumerus 26.5475 -7.4225 -18.1767
rradius 114.599
rwrist -83.2718
rhand 29.1006 7.53528
rfingers 7.12502
rthumb 52.8966 -12.0223
lclavicle -3.8266e-015 -3.37934e-015
lhumerus 32.9108 -5.80213 20.8821
lradius 115.88
lwrist 75.4343
lhand 15.2164 24.5066
lfingers 7.12502
lthumb 40.0553 49.716
rfemur -21.4841 -2.18412 17.4067
rtibia 40.5558
rfoot -20.0243 -15.1239
rtoes -12.9464
lfemur -20.0207 1.46478 -21.1166
ltibia 37.7624
lfoot -20.8804 9.09052
ltoes -11.3187
1050
root -0.306467 17.5469 -1.35434 2.56474 -0.219738 2.4939
lowerback 8.39464 2.39533 -0.854991
upperback 0.651717 3.06898 -0.857149
thorax -4.02452 1.52839 -0.767518
lowerneck -2.7231 -5.35522 -6.00381
upperneck -6.32422 -6.83828 5.56297
head -1.10998 -3.36432 2.79491
rclavicle 5.61567e-014 -1.74931e-014
rhumerus 27.4547 -8.85936 -19.0562
rradius 113.717
rwrist -83.4908
rhand 29.2319 7.47346
rfingers 7.12502
rthumb 53.0151 -12.0093
lclavicle 5.61567e-014 -1.74931e-014
lhumerus 33.4676 -4.17164 21.5084
lradius 115.035
lwrist 75.9827
lhand 15.3419 24.571
lfingers 7.12502
lthumb 40.1733 49.7446
rfemur -21.2276 -2.07383 17.4352
rtibia 40.1966
rfoot -19.991 -15.2676
rtoes -13.0372
lfemur -19.7925 1.4012 -21.07
ltibia 37.5026
lfoot -20.8368 9.11128
ltoes -11.1389
1051
root -0.309143 17.5581 -1.34416 2.50942 -0.211578 2.43448
lowerback 8.34749 2.42502 -0.730969
upperback 0.614522 3.12077 -0.852891
thorax -4.03016 1.55204 -0.837322
lowerneck -2.83199 -5.43355 -6.14628
upperneck -6.29733 -6.92974 5.7077
head -1.06691 -3.40752 2.86281
rclavicle -1.87106e-014 -1.63003e-014
rhumerus 28.3827 -10.2993 -19.8845
rradius 112.82
rwrist -83.8126
rhand 29.4301 7.3345
rfingers 7.12502
rthumb 53.1939 -12.0343
lclavicle -1.87106e-014 -1.63003e-014
lhumerus 34.1592 -2.62441 22.2934
lradius 114.128
lwrist 76.4731
lhand 15.5098 24.7811
lfingers 7.12502
lthumb 40.3313 49.9063
rfemur -20.9596 -2.0198 17.5057
rtibia 39.8825
rfoot -19.8522 -15.3206
rtoes -13.2208
lfemur -19.5533 1.3966 -20.9956
ltibia 37.2493
lfoot -20.7337 9.18125
ltoes -11.4627
1052
root -0.310481 17.5656 -1.33594 2.49017 -0.220391 2.46693
lowerback 8.29746 2.46268 -0.697034
upperback 0.570498 3.17309 -0.88575
thorax -4.04388 1.57717 -0.89527
lowerneck -3.04228 -5.49094 -6.23085
upperneck -6.24181 -6.99116 5.78488
head -1.00313 -3.43481 2.89373
rclavicle 9.7156e-015 4.17448e-015
rhumerus 29.3229 -11.6872 -20.7061
rradius 111.922
rwrist -84.2489
rhand 29.5434 7.12881
rfingers 7.12502
rthumb 53.296 -12.1743
lclavicle 9.7156e-015 4.17448e-015
lhumerus 34.9803 -1.14399 23.0976
lradius 113.205
lwrist 76.9652
lhand 15.5845 25.0364
lfingers 7.12502
lthumb 40.4015 50.1401
rfemur -20.7889 -2.04613 17.4724
rtibia 39.6449
rfoot -19.8096 -15.2165
rtoes -13.0029
lfemur -19.3675 1.36995 -21.0228
ltibia 36.9929
lfoot -20.6779 9.18758
ltoes -11.2635
1053
root -0.311972 17.5735 -1.32684 2.52037 -0.208351 2.52465
lowerback 8.20049 2.48273 -0.694102
upperback 0.474525 3.19862 -0.936412
thorax -4.08612 1.58937 -0.950504
lowerneck -3.02192 -5.53416 -6.13122
upperneck -6.35141 -7.05088 5.72531
head -1.04367 -3.46566 2.85831
rclavicle -3.844e-014 2.44505e-014
rhumerus 30.2558 -12.9016 -21.5679
rradius 110.942
rwrist -84.6271
rhand 29.8532 7.09687
rfingers 7.12502
rthumb 53.575 -12.0245
lclavicle -3.844e-014 2.44505e-014
lhumerus 35.7616 0.198381 23.5592
lradius 112.404
lwrist 77.7132
lhand 15.131 25.3287
lfingers 7.12502
lthumb 39.975 50.5623
rfemur -20.6751 -1.97938 17.4126
rtibia 39.453
rfoot -19.8681 -15.1753
rtoes -12.5783
lfemur -19.2385 1.36254 -21.0836
ltibia 36.7385
lfoot -20.5877 9.22894
ltoes -11.489
1054
root -0.312755 17.582 -1.31808 2.55215 -0.207451 2.5811
lowerback 8.10623 2.51217 -0.705685
upperback 0.358939 3.23536 -0.979998
thorax -4.15132 1.60733 -0.992369
lowerneck -2.82425 -5.55929 -5.98426
upperneck -6.57528 -7.09467 5.65402
head -1.15473 -3.49116 2.82066
rclavicle -1.0635e-014 2.18663e-015
rhumerus 31.1773 -14.0162 -22.3957
rradius 109.931
rwrist -84.9495
rhand 30.1368 7.14581
rfingers 7.12502
rthumb 53.8299 -11.8066
lclavicle -1.0635e-014 2.18663e-015
lhumerus 36.5261 1.45326 24.0448
lradius 111.604
lwrist 78.5742
lhand 14.5127 25.7561
lfingers 7.12502
lthumb 39.3928 51.1625
rfemur -20.5702 -1.889 17.3471
rtibia 39.2666
rfoot -19.7259 -15.3215
rtoes -12.922
lfemur -19.1026 1.36156 -21.1463
ltibia 36.4879
lfoot -20.5224 9.28334
ltoes -11.5931
1055
root -0.313558 17.5895 -1.30986 2.49386 -0.180269 2.64119
lowerback 8.09241 2.52459 -0.745149
upperback 0.319801 3.24782 -0.987826
thorax -4.18593 1.61408 -0.980471
lowerneck -2.88612 -5.58169 -5.98099
upperneck -6.60203 -7.11982 5.66384
head -1.15081 -3.50292 2.82133
rclavicle -9.18137e-015 -1.98785e-015
rhumerus 32.2357 -15.1112 -23.2143
rradius 108.945
rwrist -85.2414
rhand 30.1858 7.09527
rfingers 7.12502
rthumb 53.8739 -11.8276
lclavicle -9.18137e-015 -1.98785e-015
lhumerus 37.2775 2.70933 24.786
lradius 110.543
lwrist 79.092
lhand 15.0149 25.6782
lfingers 7.12502
lthumb 39.8657 50.9446
rfemur -20.3565 -1.85839 17.2713
rtibia 39.0748
rfoot -19.6613 -15.3944
rtoes -13.1603
lfemur -18.8657 1.32433 -21.209
ltibia 36.2341
lfoot -20.4858 9.32622
ltoes -11.8343
1056
root -0.315145 17.5968 -1.30173 2.44417 -0.117739 2.61156
lowerback 8.06642 2.5171 -0.702316
upperback 0.302409 3.24309 -0.964541
thorax -4.18845 1.61117 -0.979015
lowerneck -3.11069 -5.60681 -6.01912
upperneck -6.49249 -7.14177 5.68665
head -1.07325 -3.51087 2.82401
rclavicle -4.44781e-015 5.36719e-015
rhumerus 33.3255 -16.1716 -24.0555
rradius 107.949
rwrist -85.4574
rhand 30.3859 7.11875
rfingers 7.12502
rthumb 54.0536 -11.683
lclavicle -4.44781e-015 5.36719e-015
lhumerus 38.0486 3.89139 25.4874
lradius 109.359
lwrist 79.366
lhand 16.1352 25.2718
lfingers 7.12502
lthumb 40.9191 50.2138
rfemur -20.1398 -1.86446 17.2974
rtibia 38.8702
rfoot -19.8028 -15.3628
rtoes -12.7719
lfemur -18.6469 1.27241 -21.1627
ltibia 35.9861
lfoot -20.3826 9.32949
ltoes -11.8513
1057
root -0.318914 17.6043 -1.29396 2.42625 -0.115455 2.67216
lowerback 8.0385 2.53247 -0.772868
upperback 0.255083 3.25685 -0.969837
thorax -4.22556 1.61921 -0.946867
lowerneck -3.26034 -5.62724 -6.101
upperneck -6.46559 -7.1573 5.74255
head -1.03286 -3.5156 2.85083
rclavicle -4.85532e-014 -9.93923e-016
rhumerus 34.3977 -17.1572 -24.9284
rradius 106.958
rwrist -85.6668
rhand 30.6979 7.04849
rfingers 7.12502
rthumb 54.3333 -11.5617
lclavicle -4.85532e-014 -9.93923e-016
lhumerus 38.8412 5.01543 26.2197
lradius 108.339
lwrist 79.7264
lhand 16.6347 25.4784
lfingers 7.12502
lthumb 41.3881 50.2702
rfemur -19.9953 -1.79614 17.2298
rtibia 38.6897
rfoot -19.8771 -15.338
rtoes -12.0818
lfemur -18.4572 1.25631 -21.217
ltibia 35.7287
lfoot -20.2455 9.34847
ltoes -11.8344
